<?xml version="1.0" encoding="UTF-8" ?>
<!DOCTYPE svg PUBLIC "-//W3C//DTD SVG 1.1//EN" "http://www.w3.org/Graphics/SVG/1.1/DTD/svg11.dtd">
<svg width="20pt" height="20pt" viewBox="0 0 500 500" version="1.1" xmlns="http://www.w3.org/2000/svg">
<g id="#ffffffff">
<path fill="#ffffff" opacity="1.00" d=" M 280.01 88.90 C 299.68 87.06 319.50 87.63 339.13 89.65 C 360.24 91.82 381.07 97.54 400.03 107.14 C 411.50 112.67 420.95 121.40 430.23 129.95 C 430.37 130.20 430.64 130.70 430.78 130.95 C 432.95 135.03 436.36 138.26 438.73 142.23 C 447.09 155.30 453.90 170.24 453.68 186.04 C 452.27 207.99 442.80 228.42 432.18 247.34 C 419.14 269.86 403.81 291.08 386.30 310.34 C 358.24 342.91 322.72 368.53 284.07 387.09 C 256.94 400.00 227.25 408.24 197.08 408.46 C 193.91 408.40 190.99 407.05 188.19 405.74 C 188.07 406.21 187.84 407.14 187.73 407.61 C 186.78 407.28 186.37 406.59 186.50 405.54 C 183.66 404.68 181.59 402.26 179.10 400.72 C 171.43 394.26 168.63 383.83 168.30 374.15 C 168.32 369.68 169.87 365.40 171.44 361.27 C 173.05 357.46 174.93 353.73 177.47 350.45 C 180.15 346.80 183.76 343.93 186.16 340.06 C 181.85 341.27 178.45 344.28 174.94 346.89 C 149.94 365.96 124.50 384.46 99.44 403.45 C 94.38 408.40 88.02 414.10 80.31 412.12 C 75.59 409.58 72.31 405.00 68.27 401.55 C 65.43 399.20 66.05 394.97 67.11 391.87 C 69.61 384.96 73.48 378.66 77.41 372.49 C 88.44 355.10 100.55 338.41 112.87 321.92 C 125.89 304.69 138.95 287.46 153.28 271.29 C 185.53 234.92 220.45 200.86 258.13 170.13 C 268.04 161.82 278.53 154.25 288.66 146.23 C 293.69 141.77 299.91 137.42 306.97 138.10 C 310.29 139.02 313.22 140.95 316.21 142.61 C 317.68 143.59 318.97 144.82 320.14 146.14 C 320.77 148.70 320.62 151.63 318.55 153.51 C 307.80 164.07 296.91 174.50 286.18 185.08 C 258.60 213.55 231.24 242.25 204.45 271.48 C 183.64 294.42 162.79 317.42 144.26 342.29 C 143.02 343.74 142.60 345.62 142.64 347.50 C 149.07 344.54 154.69 340.13 160.74 336.49 C 168.62 331.41 176.86 326.91 184.98 322.22 C 198.46 314.80 212.24 307.95 226.16 301.40 C 228.16 300.48 230.63 299.71 232.68 300.94 C 234.48 302.42 235.87 304.32 237.45 306.02 C 239.92 310.17 245.22 313.63 244.17 319.05 C 242.23 322.88 238.69 325.61 235.87 328.77 C 228.15 336.46 220.44 344.23 213.92 352.98 C 212.38 355.35 210.35 357.78 210.30 360.73 C 211.72 363.81 215.91 362.07 218.57 362.17 C 224.56 361.31 230.50 359.99 236.21 357.98 C 263.14 348.40 287.60 333.16 311.18 317.26 C 334.47 301.32 356.31 283.27 376.54 263.60 C 390.05 250.30 403.19 236.46 413.75 220.65 C 421.51 208.84 428.51 195.52 428.47 181.04 C 428.01 170.98 420.69 163.08 413.34 157.01 C 410.65 154.39 407.61 152.18 404.49 150.11 C 401.13 146.66 396.80 144.45 392.49 142.42 C 369.05 131.44 342.59 128.93 317.01 130.04 C 275.92 130.88 235.32 140.23 197.07 154.98 C 176.53 163.31 156.73 173.41 137.68 184.71 C 119.78 195.62 101.97 207.26 87.51 222.59 C 83.96 226.96 78.94 231.50 79.49 237.65 C 83.01 237.43 86.56 237.16 89.97 236.22 C 94.93 234.89 99.80 233.23 104.57 231.34 C 112.79 228.18 120.77 224.44 128.71 220.64 C 145.35 212.38 162.07 204.02 177.24 193.22 C 184.53 187.89 191.09 180.77 200.07 178.37 C 202.40 179.66 201.57 182.95 200.75 184.93 C 195.59 195.47 187.59 204.19 179.92 212.94 C 172.02 221.68 163.25 229.56 154.39 237.31 C 144.03 246.21 132.18 253.29 119.69 258.76 C 108.83 263.26 96.87 266.98 85.03 264.78 C 80.41 264.04 76.39 261.48 71.91 260.29 L 71.62 260.21 C 64.97 254.98 57.62 250.13 53.35 242.58 C 47.63 233.37 47.33 221.88 49.71 211.57 C 52.35 199.11 59.31 188.00 67.63 178.53 C 79.36 165.39 93.78 154.99 108.60 145.63 C 138.36 126.89 171.18 113.35 205.00 103.89 C 229.56 96.97 254.58 91.36 280.01 88.90 Z" />
</g>
<g id="#000000ff">
<path fill="#000000" opacity="1.00" d=" M 227.62 3.85 C 278.09 -0.79 329.92 10.52 373.78 35.95 C 404.56 54.04 431.67 78.52 452.13 107.82 C 478.18 144.69 493.79 188.86 496.69 233.91 C 497.95 256.75 496.57 279.79 491.64 302.16 C 482.82 343.26 463.16 381.95 435.36 413.45 C 412.11 439.91 383.07 461.19 350.94 475.60 C 311.45 493.72 266.98 500.26 223.85 495.80 C 186.06 492.03 149.40 478.95 117.42 458.54 C 63.39 424.54 23.74 368.66 9.33 306.48 C -0.97 262.54 0.92 215.72 15.19 172.86 C 31.41 123.12 63.96 78.88 106.69 48.67 C 141.93 23.11 184.33 7.82 227.62 3.85 M 280.01 88.90 C 254.58 91.36 229.56 96.97 205.00 103.89 C 171.18 113.35 138.36 126.89 108.60 145.63 C 93.78 154.99 79.36 165.39 67.63 178.53 C 59.31 188.00 52.35 199.11 49.71 211.57 C 47.33 221.88 47.63 233.37 53.35 242.58 C 57.62 250.13 64.97 254.98 71.62 260.21 L 71.91 260.29 C 73.91 262.45 76.10 264.55 78.82 265.76 C 79.98 267.76 82.02 268.95 83.91 270.16 C 90.55 274.17 98.06 277.22 105.95 277.05 C 120.24 276.72 133.75 270.91 146.12 264.16 C 164.22 254.43 178.85 239.70 193.14 225.21 C 199.76 218.11 206.20 210.76 211.44 202.57 C 213.71 198.85 216.38 194.61 214.83 190.09 C 211.74 190.03 209.10 191.67 206.49 193.09 C 207.82 190.35 209.23 187.12 207.45 184.23 C 204.69 184.70 202.16 185.96 199.85 187.49 L 200.75 184.93 C 201.57 182.95 202.40 179.66 200.07 178.37 C 191.09 180.77 184.53 187.89 177.24 193.22 C 162.07 204.02 145.35 212.38 128.71 220.64 C 120.77 224.44 112.79 228.18 104.57 231.34 C 106.56 228.77 108.94 226.57 111.41 224.46 C 133.28 205.98 158.28 191.57 183.79 178.76 C 215.27 162.94 249.24 152.39 283.86 146.10 C 285.44 145.94 287.18 145.32 288.66 146.23 C 278.53 154.25 268.04 161.82 258.13 170.13 C 220.45 200.86 185.53 234.92 153.28 271.29 C 138.95 287.46 125.89 304.69 112.87 321.92 C 100.55 338.41 88.44 355.10 77.41 372.49 C 73.48 378.66 69.61 384.96 67.11 391.87 C 66.05 394.97 65.43 399.20 68.27 401.55 C 72.31 405.00 75.59 409.58 80.31 412.12 C 82.66 414.36 84.84 416.92 87.82 418.37 C 89.73 420.36 91.50 422.76 94.22 423.68 C 97.88 424.79 101.83 423.71 105.04 421.82 C 109.23 419.54 112.07 415.56 115.99 412.92 C 133.46 400.05 150.66 386.79 168.30 374.15 C 168.63 383.83 171.43 394.26 179.10 400.72 C 181.59 402.26 183.66 404.68 186.50 405.54 C 186.37 406.59 186.78 407.28 187.73 407.61 L 187.63 408.00 C 189.13 408.78 190.51 409.80 192.04 410.55 C 192.22 410.96 192.58 411.78 192.76 412.19 C 197.74 416.04 203.69 418.85 209.90 419.95 C 229.61 420.18 249.25 416.49 268.01 410.58 C 290.39 403.41 311.42 392.61 331.38 380.30 C 351.51 367.73 370.34 353.01 387.03 336.11 C 406.28 316.05 424.20 294.56 438.77 270.83 C 449.54 253.85 459.11 235.82 464.43 216.33 C 466.91 206.48 468.74 196.11 466.46 186.03 C 463.08 169.98 454.81 155.21 444.16 142.85 C 442.45 141.13 441.12 138.70 438.62 138.06 C 436.34 135.43 434.17 132.15 430.78 130.95 C 430.64 130.70 430.37 130.20 430.23 129.95 C 420.95 121.40 411.50 112.67 400.03 107.14 C 381.07 97.54 360.24 91.82 339.13 89.65 C 319.50 87.63 299.68 87.06 280.01 88.90 Z" />
<path fill="#000000" opacity="1.00" d=" M 316.21 142.61 C 321.47 141.59 326.85 141.80 332.18 141.60 C 354.99 140.70 378.32 142.78 399.73 151.16 C 404.37 152.87 408.61 155.52 413.34 157.01 C 420.69 163.08 428.01 170.98 428.47 181.04 C 428.51 195.52 421.51 208.84 413.75 220.65 C 403.19 236.46 390.05 250.30 376.54 263.60 C 356.31 283.27 334.47 301.32 311.18 317.26 C 287.60 333.16 263.14 348.40 236.21 357.98 C 235.37 358.07 233.70 358.26 232.86 358.36 C 240.21 348.94 249.62 341.40 257.19 332.19 C 259.74 328.65 256.82 324.29 254.41 321.54 C 251.55 318.52 249.56 314.42 245.56 312.74 C 242.60 310.76 240.94 307.23 237.45 306.02 C 235.87 304.32 234.48 302.42 232.68 300.94 C 230.63 299.71 228.16 300.48 226.16 301.40 C 212.24 307.95 198.46 314.80 184.98 322.22 L 183.66 322.29 C 196.36 306.85 210.01 292.22 223.45 277.44 C 248.83 249.86 274.76 222.78 300.79 195.81 C 310.96 185.97 321.13 176.12 331.25 166.23 C 333.24 164.41 334.99 161.84 334.43 159.00 C 333.27 155.70 329.70 154.38 327.30 152.15 C 325.09 149.93 322.37 148.33 320.14 146.14 C 318.97 144.82 317.68 143.59 316.21 142.61 Z" />
</g>
<g id="#a6a6a6ff">
<path fill="#a6a6a6" opacity="1.00" d=" M 197.07 154.98 C 235.32 140.23 275.92 130.88 317.01 130.04 C 342.59 128.93 369.05 131.44 392.49 142.42 C 396.80 144.45 401.13 146.66 404.49 150.11 C 399.61 148.65 395.17 146.08 390.36 144.42 C 369.51 136.83 347.01 134.89 324.97 135.81 C 287.41 136.44 250.22 144.25 214.88 156.74 C 195.58 163.51 177.12 172.44 159.15 182.17 C 142.90 191.16 127.03 200.92 112.30 212.26 C 103.50 219.27 94.73 226.65 88.40 236.06 L 89.97 236.22 C 86.56 237.16 83.01 237.43 79.49 237.65 C 78.94 231.50 83.96 226.96 87.51 222.59 C 101.97 207.26 119.78 195.62 137.68 184.71 C 156.73 173.41 176.53 163.31 197.07 154.98 Z" />
<path fill="#a6a6a6" opacity="1.00" d=" M 430.78 130.95 C 434.17 132.15 436.34 135.43 438.62 138.06 C 448.33 151.18 457.16 165.62 459.85 181.99 C 461.59 190.66 460.09 199.55 458.14 208.05 C 453.11 228.21 443.36 246.83 432.32 264.30 C 423.16 279.42 412.43 293.53 401.15 307.12 C 387.49 323.07 373.06 338.48 356.62 351.62 C 336.66 367.76 314.72 381.41 291.61 392.57 C 264.61 405.52 235.05 413.86 204.98 414.25 C 200.40 414.31 196.21 412.17 192.04 410.55 C 190.51 409.80 189.13 408.78 187.63 408.00 L 187.73 407.61 C 187.84 407.14 188.07 406.21 188.19 405.74 C 190.99 407.05 193.91 408.40 197.08 408.46 C 227.25 408.24 256.94 400.00 284.07 387.09 C 322.72 368.53 358.24 342.91 386.30 310.34 C 403.81 291.08 419.14 269.86 432.18 247.34 C 442.80 228.42 452.27 207.99 453.68 186.04 C 453.90 170.24 447.09 155.30 438.73 142.23 C 436.36 138.26 432.95 135.03 430.78 130.95 Z" />
<path fill="#a6a6a6" opacity="1.00" d=" M 320.14 146.14 C 322.37 148.33 325.09 149.93 327.30 152.15 C 327.85 154.74 327.41 157.59 325.35 159.42 C 315.09 169.47 304.79 179.49 294.44 189.46 C 266.41 218.45 238.54 247.60 211.30 277.34 C 196.19 293.92 181.21 310.62 166.94 327.93 C 164.64 330.60 162.34 333.32 160.74 336.49 C 154.69 340.13 149.07 344.54 142.64 347.50 C 142.60 345.62 143.02 343.74 144.26 342.29 C 162.79 317.42 183.64 294.42 204.45 271.48 C 231.24 242.25 258.60 213.55 286.18 185.08 C 296.91 174.50 307.80 164.07 318.55 153.51 C 320.62 151.63 320.77 148.70 320.14 146.14 Z" />
<path fill="#a6a6a6" opacity="1.00" d=" M 199.85 187.49 C 202.16 185.96 204.69 184.70 207.45 184.23 C 209.23 187.12 207.82 190.35 206.49 193.09 C 198.40 208.11 185.69 219.87 173.79 231.83 C 166.33 238.71 158.92 245.72 150.48 251.41 C 139.73 258.70 128.06 264.78 115.59 268.55 C 108.00 270.76 99.92 272.11 92.05 270.61 C 87.38 269.78 83.17 267.53 78.82 265.76 C 76.10 264.55 73.91 262.45 71.91 260.29 C 76.39 261.48 80.41 264.04 85.03 264.78 C 96.87 266.98 108.83 263.26 119.69 258.76 C 132.18 253.29 144.03 246.21 154.39 237.31 C 163.25 229.56 172.02 221.68 179.92 212.94 C 187.59 204.19 195.59 195.47 200.75 184.93 L 199.85 187.49 Z" />
<path fill="#a6a6a6" opacity="1.00" d=" M 237.45 306.02 C 240.94 307.23 242.60 310.76 245.56 312.74 C 247.87 316.80 253.36 321.30 250.32 326.33 C 239.99 338.48 227.23 348.61 218.57 362.17 C 215.91 362.07 211.72 363.81 210.30 360.73 C 210.35 357.78 212.38 355.35 213.92 352.98 C 220.44 344.23 228.15 336.46 235.87 328.77 C 238.69 325.61 242.23 322.88 244.17 319.05 C 245.22 313.63 239.92 310.17 237.45 306.02 Z" />
<path fill="#a6a6a6" opacity="1.00" d=" M 174.94 346.89 C 178.45 344.28 181.85 341.27 186.16 340.06 C 183.76 343.93 180.15 346.80 177.47 350.45 C 174.93 353.73 173.05 357.46 171.44 361.27 C 168.24 362.52 165.76 364.94 163.03 366.94 C 144.85 380.42 126.74 393.99 108.57 407.49 C 104.52 410.45 101.39 414.65 96.75 416.77 C 94.01 418.19 90.85 418.37 87.82 418.37 C 84.84 416.92 82.66 414.36 80.31 412.12 C 88.02 414.10 94.38 408.40 99.44 403.45 C 124.50 384.46 149.94 365.96 174.94 346.89 Z" />
</g>
<g id="#4d4d4dff">
<path fill="#4d4d4d" opacity="1.00" d=" M 214.88 156.74 C 250.22 144.25 287.41 136.44 324.97 135.81 C 347.01 134.89 369.51 136.83 390.36 144.42 C 395.17 146.08 399.61 148.65 404.49 150.11 C 407.61 152.18 410.65 154.39 413.34 157.01 C 408.61 155.52 404.37 152.87 399.73 151.16 C 378.32 142.78 354.99 140.70 332.18 141.60 C 326.85 141.80 321.47 141.59 316.21 142.61 C 313.22 140.95 310.29 139.02 306.97 138.10 C 299.91 137.42 293.69 141.77 288.66 146.23 C 287.18 145.32 285.44 145.94 283.86 146.10 C 249.24 152.39 215.27 162.94 183.79 178.76 C 158.28 191.57 133.28 205.98 111.41 224.46 C 108.94 226.57 106.56 228.77 104.57 231.34 C 99.80 233.23 94.93 234.89 89.97 236.22 L 88.40 236.06 C 94.73 226.65 103.50 219.27 112.30 212.26 C 127.03 200.92 142.90 191.16 159.15 182.17 C 177.12 172.44 195.58 163.51 214.88 156.74 Z" />
<path fill="#4d4d4d" opacity="1.00" d=" M 438.62 138.06 C 441.12 138.70 442.45 141.13 444.16 142.85 C 454.81 155.21 463.08 169.98 466.46 186.03 C 468.74 196.11 466.91 206.48 464.43 216.33 C 459.11 235.82 449.54 253.85 438.77 270.83 C 424.20 294.56 406.28 316.05 387.03 336.11 C 370.34 353.01 351.51 367.73 331.38 380.30 C 311.42 392.61 290.39 403.41 268.01 410.58 C 249.25 416.49 229.61 420.18 209.90 419.95 C 203.69 418.85 197.74 416.04 192.76 412.19 C 192.58 411.78 192.22 410.96 192.04 410.55 C 196.21 412.17 200.40 414.31 204.98 414.25 C 235.05 413.86 264.61 405.52 291.61 392.57 C 314.72 381.41 336.66 367.76 356.62 351.62 C 373.06 338.48 387.49 323.07 401.15 307.12 C 412.43 293.53 423.16 279.42 432.32 264.30 C 443.36 246.83 453.11 228.21 458.14 208.05 C 460.09 199.55 461.59 190.66 459.85 181.99 C 457.16 165.62 448.33 151.18 438.62 138.06 Z" />
<path fill="#4d4d4d" opacity="1.00" d=" M 327.30 152.15 C 329.70 154.38 333.27 155.70 334.43 159.00 C 334.99 161.84 333.24 164.41 331.25 166.23 C 321.13 176.12 310.96 185.97 300.79 195.81 C 274.76 222.78 248.83 249.86 223.45 277.44 C 210.01 292.22 196.36 306.85 183.66 322.29 L 184.98 322.22 C 176.86 326.91 168.62 331.41 160.74 336.49 C 162.34 333.32 164.64 330.60 166.94 327.93 C 181.21 310.62 196.19 293.92 211.30 277.34 C 238.54 247.60 266.41 218.45 294.44 189.46 C 304.79 179.49 315.09 169.47 325.35 159.42 C 327.41 157.59 327.85 154.74 327.30 152.15 Z" />
<path fill="#4d4d4d" opacity="1.00" d=" M 206.49 193.09 C 209.10 191.67 211.74 190.03 214.83 190.09 C 216.38 194.61 213.71 198.85 211.44 202.57 C 206.20 210.76 199.76 218.11 193.14 225.21 C 178.85 239.70 164.22 254.43 146.12 264.16 C 133.75 270.91 120.24 276.72 105.95 277.05 C 98.06 277.22 90.55 274.17 83.91 270.16 C 82.02 268.95 79.98 267.76 78.82 265.76 C 83.17 267.53 87.38 269.78 92.05 270.61 C 99.92 272.11 108.00 270.76 115.59 268.55 C 128.06 264.78 139.73 258.70 150.48 251.41 C 158.92 245.72 166.33 238.71 173.79 231.83 C 185.69 219.87 198.40 208.11 206.49 193.09 Z" />
<path fill="#4d4d4d" opacity="1.00" d=" M 245.56 312.74 C 249.56 314.42 251.55 318.52 254.41 321.54 C 256.82 324.29 259.74 328.65 257.19 332.19 C 249.62 341.40 240.21 348.94 232.86 358.36 C 233.70 358.26 235.37 358.07 236.21 357.98 C 230.50 359.99 224.56 361.31 218.57 362.17 C 227.23 348.61 239.99 338.48 250.32 326.33 C 253.36 321.30 247.87 316.80 245.56 312.74 Z" />
<path fill="#4d4d4d" opacity="1.00" d=" M 163.03 366.94 C 165.76 364.94 168.24 362.52 171.44 361.27 C 169.87 365.40 168.32 369.68 168.30 374.15 C 150.66 386.79 133.46 400.05 115.99 412.92 C 112.07 415.56 109.23 419.54 105.04 421.82 C 101.83 423.71 97.88 424.79 94.22 423.68 C 91.50 422.76 89.73 420.36 87.82 418.37 C 90.85 418.37 94.01 418.19 96.75 416.77 C 101.39 414.65 104.52 410.45 108.57 407.49 C 126.74 393.99 144.85 380.42 163.03 366.94 Z" />
</g>
</svg>
