<?xml version="1.0" encoding="UTF-8" ?>
<!DOCTYPE svg PUBLIC "-//W3C//DTD SVG 1.1//EN" "http://www.w3.org/Graphics/SVG/1.1/DTD/svg11.dtd">
<svg width="20pt" height="26pt" viewBox="0 0 150 78" version="1.1" xmlns="http://www.w3.org/2000/svg">
<g id="#56ccf2ff">
<path fill="#56ccf2" opacity="1.00" d=" M 93.02 0.00 L 94.65 0.00 C 105.80 3.38 116.87 7.04 128.03 10.40 C 133.91 8.03 139.31 2.71 146.09 4.00 C 147.63 4.04 148.85 4.96 150.00 5.89 L 150.00 7.84 C 148.41 15.80 139.38 17.32 134.42 22.27 C 131.56 33.10 129.24 44.07 126.52 54.94 C 126.09 57.69 121.46 57.62 121.20 54.74 C 118.90 47.29 117.01 39.73 114.86 32.24 C 108.99 34.85 102.99 37.18 96.85 39.11 C 95.53 43.17 95.68 47.86 93.02 51.36 C 91.66 48.09 90.79 44.66 89.92 41.24 C 89.09 41.27 87.43 41.34 86.60 41.37 C 87.05 40.26 87.55 39.16 88.08 38.08 C 85.86 35.38 82.14 33.52 81.52 29.83 C 85.55 30.81 89.49 32.11 93.42 33.43 C 98.49 29.43 103.40 25.22 108.82 21.67 C 103.39 15.88 97.65 10.36 92.27 4.52 C 90.67 3.09 92.08 1.31 93.02 0.00 Z" />
<path fill="#56ccf2" opacity="1.00" d=" M 44.67 59.84 C 59.08 54.67 72.98 48.13 86.49 40.94 C 73.38 51.44 59.22 60.64 44.40 68.55 C 35.79 72.86 26.78 76.78 17.15 78.00 L 13.07 78.00 C 7.08 77.73 1.04 73.74 0.00 67.54 L 0.00 65.48 C 0.63 62.66 1.95 60.02 3.95 57.92 C 10.67 50.40 19.95 46.01 28.79 41.54 C 23.44 45.21 17.59 48.54 13.69 53.88 C 12.24 55.76 11.20 58.44 12.35 60.71 C 14.46 63.85 18.40 65.14 22.05 65.00 C 29.84 64.79 37.35 62.34 44.67 59.84 Z" />
</g>
</svg>
